<?xml version="1.0" encoding="utf-8"?>
<!-- Generator: Adobe Illustrator 17.0.0, SVG Export Plug-In . SVG Version: 6.00 Build 0)  -->
<!DOCTYPE svg PUBLIC "-//W3C//DTD SVG 1.1//EN" "http://www.w3.org/Graphics/SVG/1.1/DTD/svg11.dtd">
<svg version="1.1" id="Layer_1" xmlns="http://www.w3.org/2000/svg" xmlns:xlink="http://www.w3.org/1999/xlink" x="0px" y="0px"
	 width="110px" height="92px" viewBox="0 0 110 92" enable-background="new 0 0 110 92" xml:space="preserve">
<g>
	<g>
		<path fill="none" stroke="#EA5B50" stroke-miterlimit="10" d="M105.107,78.825c-0.944-2.367-6.609-10.203-9.65-16.106
			c-0.575-1.115-1.259-1.824-1.947-2.259c0.926-0.737,1.527-1.908,1.527-3.238l0.017-48.957c0.003-2.234-1.699-4.047-3.805-4.051
			L19.291,4.185c-2.1,0-3.805,1.814-3.807,4.048l-0.018,48.962c0,1.13,0.431,2.143,1.133,2.876c-0.434,0.408-0.849,0.944-1.23,1.638
			C12.215,67.562,5.8,75.664,4.81,78.007c-0.67,1.6-4.591,7.883,1.351,8.1c0.189,0.009,0.414,0.012,0.668,0.019l-0.081,0.029
			c0,0,0.916,0.01,2.565,0.021c4.21,0.076,11.458,0.139,20.12,0.205c26.977,0.258,69.026,0.636,74.174,0.513
			C109.554,86.761,105.746,80.432,105.107,78.825z M54.692,7.16c0.348,0.002,0.632,0.284,0.63,0.637
			c0.002,0.35-0.285,0.633-0.635,0.63c-0.35,0.002-0.628-0.286-0.63-0.635C54.057,7.444,54.337,7.156,54.692,7.16z M21.51,10.528
			l66.569,0.023l-0.021,44.064l-66.566-0.026L21.51,10.528z M45.255,84.399l1.907-9.352l18.067,0.009l2.058,9.351L45.255,84.399z
			 M14.035,73.134l6.501-9.669l69.108,0.196l5.858,9.506L14.035,73.134z"/>
	</g>
</g>
</svg>
