<?xml version="1.0" encoding="utf-8"?>
<!-- Generator: Adobe Illustrator 17.0.0, SVG Export Plug-In . SVG Version: 6.00 Build 0)  -->
<!DOCTYPE svg PUBLIC "-//W3C//DTD SVG 1.1//EN" "http://www.w3.org/Graphics/SVG/1.1/DTD/svg11.dtd">
<svg version="1.1" id="Layer_1" xmlns="http://www.w3.org/2000/svg" xmlns:xlink="http://www.w3.org/1999/xlink" x="0px" y="0px"
	 width="84.333px" height="85px" viewBox="0 0 84.333 85" enable-background="new 0 0 84.333 85" xml:space="preserve">
<polygon fill="#EA5A4F" points="41.807,0.796 44.786,4.163 48.256,1.303 50.672,5.095 54.546,2.813 56.339,6.937 60.523,5.289 
	61.649,9.642 66.039,8.669 66.47,13.145 70.958,12.87 70.683,17.359 75.159,17.79 74.186,22.18 78.539,23.305 76.891,27.489 
	81.015,29.282 78.733,33.157 82.525,35.573 79.665,39.042 83.033,42.022 79.665,45.001 82.525,48.471 78.733,50.887 81.015,54.761 
	76.891,56.554 78.539,60.738 74.186,61.864 75.159,66.254 70.683,66.685 70.958,71.173 66.47,70.899 66.039,75.375 61.649,74.401 
	60.523,78.755 56.339,77.107 54.546,81.23 50.672,78.948 48.256,82.74 44.786,79.88 41.807,83.248 38.827,79.88 35.357,82.74 
	32.941,78.948 29.067,81.23 27.274,77.107 23.09,78.755 21.964,74.401 17.574,75.375 17.143,70.899 12.655,71.173 12.93,66.685 
	8.454,66.254 9.427,61.864 5.074,60.738 6.722,56.554 2.598,54.761 4.88,50.887 1.088,48.471 3.948,45.001 0.58,42.022 
	3.948,39.042 1.088,35.573 4.88,33.157 2.598,29.282 6.722,27.489 5.074,23.305 9.427,22.18 8.454,17.79 12.93,17.359 12.655,12.87 
	17.143,13.145 17.574,8.669 21.964,9.642 23.09,5.289 27.274,6.937 29.067,2.813 32.941,5.095 35.357,1.303 38.827,4.163 "/>
<g>
	<g>
		<path fill="#FFFFFF" d="M60.284,43.292c0.532,1.374-1.109,3.592-3.31,4.584c-2.134,0.962-4.694-0.117-5.964-2.559
			c-0.357,0.434-0.681,0.866-1.045,1.262c-1.564,1.701-3.316,3.061-5.692,3.488c-1.978,0.356-5.212-1.579-4.81-4.432
			c0.341-2.422,1.559-4.321,3.256-5.972c0.937-0.912,1.985-1.675,3.267-2.038c0.325-0.092,0.678-0.142,1.014-0.125
			c0.912,0.047,3.027,1.672,3.333,2.525c0.235,0.654,0.04,1.244-0.312,1.79c-1.036,1.61-2.531,2.718-4.124,3.711
			c-0.6,0.374-1.208,0.745-1.843,1.055c-0.507,0.248-0.299,0.63-0.206,0.934c0.05,0.164,0.365,0.356,0.555,0.351
			c1.316-0.037,2.533-0.471,3.543-1.283c0.941-0.756,1.765-1.66,2.615-2.524c0.154-0.157,0.229-0.426,0.271-0.656
			c0.611-3.379,2.492-5.825,5.446-7.509c2.095-1.194,4.261,0.298,5.146,1.562c0.503,0.718,0.341,1.519-0.103,2.24
			c-0.938,1.524-2.317,2.59-3.779,3.558c-0.641,0.424-1.307,0.812-1.967,1.208c-0.486,0.292-0.583,0.728-0.289,1.325
			c0.246,0.501,0.636,0.409,1.036,0.254c1.307-0.505,2.414-1.309,3.411-2.279C59.899,43.599,60.087,43.459,60.284,43.292z
			 M55.537,43.012c0.777-0.591,1.515-1.055,2.128-1.648c0.663-0.64,1.269-1.361,1.788-2.122c0.348-0.51,0.468-1.154,0.101-1.771
			C57.933,38.246,55.974,40.909,55.537,43.012z M44.21,44.996c0.422-0.299,0.89-0.55,1.256-0.907c0.88-0.857,1.751-1.73,2.547-2.664
			c0.374-0.438,0.528-1.037,0.263-1.705C46.175,40.922,44.914,42.722,44.21,44.996z"/>
		<path fill="#FFFFFF" d="M14.355,56.023c0.098-0.364,0.135-0.612,0.229-0.836c1.291-3.068,2.582-6.135,3.896-9.193
			c0.169-0.394,0.192-0.675-0.079-1.038c-0.396-0.529-0.308-0.715,0.346-0.916c0.465-0.143,0.768-0.379,0.984-0.866
			c0.973-2.188,2.008-4.349,3.019-6.52c0.059-0.126,0.109-0.255,0.161-0.376c-0.052-0.04-0.08-0.079-0.112-0.084
			c-0.383-0.057-0.948,0.029-1.115-0.19c-0.406-0.532-0.638-1.201-0.905-1.83c-0.024-0.057,0.19-0.286,0.326-0.328
			c0.833-0.257,1.669-0.513,2.518-0.709c0.646-0.149,1.12-0.402,1.438-1.046c0.454-0.917,0.628-1.008,1.52-0.53
			c1.213,0.65,2.244,0.017,3.318-0.28c2.051-0.567,4.083-1.204,6.124-1.806c0.189-0.056,0.388-0.074,0.578-0.109
			c0.255,0.965-0.238,2.221-1.088,2.571c-1.497,0.616-3.026,1.155-4.548,1.707c-0.838,0.304-1.693,0.559-2.532,0.857
			c-0.153,0.054-0.334,0.183-0.394,0.323c-1.017,2.345-2.018,4.698-3.019,7.051c-0.014,0.032,0.006,0.078,0.013,0.146
			c2.089-0.629,4.172-1.257,6.412-1.932c-0.083,0.388-0.108,0.636-0.189,0.865c-0.546,1.533-1.78,2.216-3.24,2.66
			c-1.395,0.425-2.774,0.903-4.147,1.395c-0.204,0.073-0.391,0.323-0.492,0.536c-1.298,2.731-2.588,5.466-3.858,8.21
			c-0.339,0.733-0.885,1.096-1.654,1.275c-0.926,0.216-1.831,0.526-2.745,0.792C14.914,55.882,14.705,55.932,14.355,56.023z"/>
		<path fill="#FFFFFF" d="M36.329,41.259c1.432-1.336,2.848-2.658,4.265-3.978c0.089-0.083,0.176-0.176,0.281-0.231
			c0.272-0.143,0.466-0.61,0.867-0.271c0.313,0.264,0.321,0.933,0.026,1.279c-0.815,0.957-1.674,1.878-2.457,2.86
			c-2.201,2.76-3.893,5.833-5.424,9c-0.238,0.493-0.511,0.968-0.746,1.462c-0.263,0.554-0.725,0.838-1.28,0.676
			c-0.742-0.216-1.5-0.488-2.142-0.904c-0.597-0.387-0.644-1.15-0.462-1.778c0.315-1.083,0.712-2.149,1.154-3.188
			c0.881-2.069,1.816-4.116,2.732-6.17c0.064-0.143,0.16-0.386,0.246-0.388c0.754-0.02,1.526-0.088,2.259,0.044
			c0.548,0.099,0.588,0.708,0.641,1.2C36.303,41.011,36.318,41.151,36.329,41.259z"/>
		<path fill="#FFFFFF" d="M63.342,40.462c0.108-0.316,0.161-0.526,0.249-0.719c2.207-4.817,4.08-9.765,5.805-14.771
			c0.387-1.123,0.561-1.194,1.598-0.632c0.16,0.087,0.308,0.199,0.473,0.277c1.373,0.651,1.6,1.603,1.015,2.929
			c-1.497,3.394-3.09,6.746-4.67,10.103c-0.222,0.471-0.572,0.885-0.887,1.308c-0.505,0.677-1.161,1.112-2.021,1.222
			C64.429,40.24,63.961,40.348,63.342,40.462z"/>
		<path fill="#FFFFFF" d="M63.593,46.569c-0.708-0.013-1.254-0.015-1.799-0.036c-0.48-0.018-0.68-0.321-0.535-0.737
			c0.36-1.033,0.776-2.046,1.173-3.066c0.029-0.073,0.083-0.142,0.14-0.197c0.314-0.308,1.846-0.177,2.378,0.2
			c0.447,0.317,0.534,0.789,0.224,1.473c-0.259,0.572-0.523,1.149-0.857,1.678C64.133,46.179,63.8,46.381,63.593,46.569z"/>
	</g>
</g>
<g>
	<path fill="#FFFFFF" d="M45.522,21.802c-0.153,0.495-0.266,1.007-0.469,1.48c-0.45,1.055-0.937,2.095-1.422,3.134
		c-1.139,2.437-2.297,4.864-3.422,7.307c-0.311,0.676-0.771,1.083-1.506,1.231c-0.465,0.093-0.908,0.289-1.368,0.418
		c-0.151,0.042-0.32,0.017-0.481,0.022c0.02-0.156,0.001-0.329,0.065-0.464c2.159-4.599,4.327-9.194,6.485-13.793
		c0.144-0.307,0.32-0.419,0.642-0.307c0.281,0.098,0.574,0.164,0.851,0.272c0.296,0.117,0.494,0.332,0.52,0.672
		C45.452,21.784,45.487,21.793,45.522,21.802z"/>
	<path fill="#FFFFFF" d="M46.189,32.161c1.068-0.083,1.708-0.767,2.342-1.461c0.035,0.007,0.071,0.015,0.106,0.022
		c-0.002,0.199,0.064,0.432-0.016,0.59c-0.469,0.924-1.105,1.704-2.087,2.129c-0.906,0.391-2.179-0.006-2.616-0.882
		c-0.157-0.316-0.192-0.757-0.119-1.108c0.131-0.637,0.352-1.262,0.594-1.868c0.25-0.626,0.57-1.224,0.882-1.883
		c-0.126,0.012-0.193,0.018-0.259,0.024c-0.431,0.039-0.847-0.388-0.757-0.802c0.019-0.088,0.148-0.185,0.247-0.217
		c0.409-0.132,0.83-0.227,1.236-0.366c0.137-0.047,0.298-0.162,0.355-0.288c0.502-1.11,0.997-2.223,1.461-3.349
		c0.13-0.316,0.295-0.442,0.617-0.361c0.277,0.07,0.561,0.125,0.827,0.226c0.568,0.215,0.766,0.564,0.615,1.155
		c-0.118,0.46-0.305,0.903-0.464,1.353c-0.043,0.121-0.095,0.239-0.151,0.38c0.525-0.087,1.02-0.169,1.515-0.251
		c0.106,0.44,0.044,0.61-0.339,0.78c-0.49,0.217-0.995,0.401-1.486,0.617c-0.131,0.058-0.291,0.155-0.342,0.275
		c-0.697,1.637-1.378,3.28-2.06,4.923C46.246,31.897,46.231,32.004,46.189,32.161z"/>
	<path fill="#FFFFFF" d="M53.982,33.015c-0.584,0.116-1.148-0.023-1.654-0.397c-0.357-0.264-0.344-0.421,0.024-0.649
		c0.699-0.433,1.311-0.961,1.751-1.664c0.457-0.731,0.401-1.061-0.274-1.583c-0.355-0.275-0.687-0.564-0.8-1.023
		c-0.165-0.669-0.027-1.269,0.487-1.736c0.343-0.311,0.729-0.575,1.103-0.849c0.327-0.24,0.675-0.451,0.993-0.702
		c0.207-0.163,0.415-0.181,0.578-0.011c0.286,0.297,0.585,0.604,0.783,0.96c0.23,0.413,0.14,0.862-0.224,1.175
		c-0.35,0.301-0.75,0.544-1.132,0.806c-0.245,0.168-0.513,0.306-0.746,0.489c-0.295,0.232-0.312,0.493-0.065,0.772
		c0.158,0.178,0.344,0.332,0.522,0.491c1.014,0.903,1.068,2.134,0.137,3.121C55.029,32.681,54.603,32.914,53.982,33.015z"/>
	<path fill="#FFFFFF" d="M51.077,26.327c0.041-0.19,0.052-0.312,0.092-0.422c0.642-1.733,1.293-3.462,1.927-5.197
		c0.085-0.233,0.207-0.39,0.45-0.378c0.424,0.021,0.853,0.04,1.266,0.126c0.33,0.069,0.432,0.358,0.279,0.755
		c-0.205,0.534-0.428,1.064-0.685,1.574c-0.455,0.904-0.848,1.847-1.558,2.601C52.383,25.882,51.793,26.124,51.077,26.327z"/>
</g>
</svg>
